<?xml version="1.0" encoding="utf-8"?>
<!-- Generator: Adobe Illustrator 21.0.2, SVG Export Plug-In . SVG Version: 6.00 Build 0)  -->
<!DOCTYPE svg PUBLIC "-//W3C//DTD SVG 1.1//EN" "http://www.w3.org/Graphics/SVG/1.1/DTD/svg11.dtd">
<svg version="1.1" id="Ebene_1" xmlns="http://www.w3.org/2000/svg" xmlns:xlink="http://www.w3.org/1999/xlink" x="0px" y="0px" width="174px" height="106.5px"
	 viewBox="0 0 174 106.5" style="enable-background:new 0 0 174 106.5;" xml:space="preserve">
<style type="text/css">
	.st0{fill:#8B8F93;}
	.st1{fill:#007A9E;}
	.st2{fill:#DD6108;}
	.st3{fill:#5A6065;}
	.st4{fill:#B1063A;}
	.st5{fill:#DEDFE0;}
</style>
<path class="st0" d="M0,0v24h24V0H0z M16.7,6.4l-1.7,0c-1.3,0-1.6,0.6-1.6,1.5v1.9h3.2l-0.4,3h-2.8v7.7h-3.3v-7.7H7.3v-3h2.8V7.5
	c0-2.6,1.7-3.9,4.1-3.9c1.2,0,2.2,0.1,2.5,0.1V6.4z"/>
<path class="st1" d="M21.4,31l-3.2-3.7C18.1,27.2,18,27.1,18,27v-1.7c0-0.1,0.1-0.2,0.2-0.2c0.1,0,0.1,0,0.2,0.1l3.6,4.1l3.6-4.1
	c0-0.1,0.1-0.1,0.2-0.1c0.1,0,0.2,0.1,0.2,0.2v1.7c0,0.2-0.1,0.2-0.2,0.4L22.6,31c-0.2,0.3-0.4,0.4-0.6,0.4S21.6,31.2,21.4,31z"/>
<path class="st2" d="M3.4,31l-3.2-3.7C0.1,27.2,0,27.1,0,26.9v-1.7C0,25.1,0.1,25,0.2,25c0.1,0,0.1,0,0.2,0.1L4,29.2l3.6-4.1
	C7.6,25,7.7,25,7.8,25C7.9,25,8,25.1,8,25.2v1.7c0,0.2-0.1,0.2-0.2,0.4L4.6,31c-0.2,0.3-0.4,0.4-0.6,0.4S3.6,31.2,3.4,31z"/>
<path class="st3" d="M30.4,30.9l-3.2-3.7C27.1,27.1,27,27,27,26.9v-1.7c0-0.1,0.1-0.2,0.2-0.2c0.1,0,0.1,0,0.2,0.1l3.6,4.1l3.6-4.1
	c0-0.1,0.1-0.1,0.2-0.1c0.1,0,0.2,0.1,0.2,0.2v1.7c0,0.2-0.1,0.2-0.2,0.4l-3.2,3.7c-0.2,0.3-0.4,0.4-0.6,0.4S30.6,31.1,30.4,30.9z"
	/>
<path class="st1" d="M76.6,29.6l4.3-3.7c0.1,0,0.1,0,0.1-0.1c0-0.1-0.1-0.1-0.2-0.1H79c-0.2,0-0.2,0-0.4,0.1l-3.1,2.7l-3.1-2.7
	c-0.1-0.1-0.2-0.1-0.4-0.1h-1.8c-0.1,0-0.2,0-0.2,0.1c0,0.1,0,0.1,0.1,0.1l4.3,3.7l-4.3,3.7c-0.1,0-0.1,0.1-0.1,0.2
	c0,0.1,0.1,0.2,0.2,0.2H72c0.2,0,0.2-0.1,0.4-0.2l3.1-2.7l3.1,2.7c0.1,0.1,0.2,0.2,0.4,0.2h1.8c0.1,0,0.2-0.1,0.2-0.2
	c0-0.1,0-0.1-0.1-0.2L76.6,29.6z"/>
<path class="st4" d="M88.6,29.6l4.3-3.7c0.1,0,0.1,0,0.1-0.1c0-0.1-0.1-0.1-0.2-0.1H91c-0.2,0-0.2,0-0.4,0.1l-3.1,2.7l-3.1-2.7
	c-0.1-0.1-0.2-0.1-0.4-0.1h-1.8c-0.1,0-0.2,0-0.2,0.1c0,0.1,0,0.1,0.1,0.1l4.3,3.7l-4.3,3.7c-0.1,0-0.1,0.1-0.1,0.2
	c0,0.1,0.1,0.2,0.2,0.2H84c0.2,0,0.2-0.1,0.4-0.2l3.1-2.7l3.1,2.7c0.1,0.1,0.2,0.2,0.4,0.2h1.8c0.1,0,0.2-0.1,0.2-0.2
	c0-0.1,0-0.1-0.1-0.2L88.6,29.6z"/>
<path class="st3" d="M64.6,29.6l4.3-3.7c0.1,0,0.1,0,0.1-0.1c0-0.1-0.1-0.1-0.2-0.1H67c-0.2,0-0.2,0-0.4,0.1l-3.1,2.7l-3.1-2.7
	c-0.1-0.1-0.2-0.1-0.4-0.1h-1.8c-0.1,0-0.2,0-0.2,0.1c0,0.1,0,0.1,0.1,0.1l4.3,3.7l-4.3,3.7c-0.1,0-0.1,0.1-0.1,0.2
	c0,0.1,0.1,0.2,0.2,0.2H60c0.2,0,0.2-0.1,0.4-0.2l3.1-2.7l3.1,2.7c0.1,0.1,0.2,0.2,0.4,0.2h1.8c0.1,0,0.2-0.1,0.2-0.2
	c0-0.1,0-0.1-0.1-0.2L64.6,29.6z"/>
<path class="st2" d="M52.6,29.6l4.3-3.7c0.1,0,0.1,0,0.1-0.1c0-0.1-0.1-0.1-0.2-0.1H55c-0.2,0-0.2,0-0.4,0.1l-3.1,2.7l-3.1-2.7
	c-0.1-0.1-0.2-0.1-0.4-0.1h-1.8c-0.1,0-0.2,0-0.2,0.1c0,0.1,0,0.1,0.1,0.1l4.3,3.7l-4.3,3.7c-0.1,0-0.1,0.1-0.1,0.2
	c0,0.1,0.1,0.2,0.2,0.2H48c0.2,0,0.2-0.1,0.4-0.2l3.1-2.7l3.1,2.7c0.1,0.1,0.2,0.2,0.4,0.2h1.8c0.1,0,0.2-0.1,0.2-0.2
	c0-0.1,0-0.1-0.1-0.2L52.6,29.6z"/>
<path class="st2" d="M4.6,32.2l3.2,3.7C7.9,36,8,36,8,36.2v1.7c0,0.1-0.1,0.2-0.2,0.2c-0.1,0-0.1,0-0.2-0.1L4,33.9L0.4,38
	c0,0.1-0.1,0.1-0.2,0.1c-0.1,0-0.2-0.1-0.2-0.2v-1.7C0,36,0.1,36,0.2,35.9l3.2-3.7c0.2-0.3,0.4-0.4,0.6-0.4S4.4,31.9,4.6,32.2z"/>
<path class="st3" d="M31.6,32.1l3.2,3.7c0.1,0.1,0.2,0.2,0.2,0.3v1.7c0,0.1-0.1,0.2-0.2,0.2c-0.1,0-0.1,0-0.2-0.1L31,33.8L27.4,38
	c0,0.1-0.1,0.1-0.2,0.1c-0.1,0-0.2-0.1-0.2-0.2v-1.7c0-0.2,0.1-0.2,0.2-0.4l3.2-3.7c0.2-0.3,0.4-0.4,0.6-0.4S31.4,31.9,31.6,32.1z"
	/>
<path class="st1" d="M22.6,32.3l3.2,3.7c0.1,0.1,0.2,0.2,0.2,0.3v1.7c0,0.1-0.1,0.2-0.2,0.2c-0.1,0-0.1,0-0.2-0.1L22,34.1l-3.6,4.1
	c0,0.1-0.1,0.1-0.2,0.1c-0.1,0-0.2-0.1-0.2-0.2v-1.7c0-0.2,0.1-0.2,0.2-0.4l3.2-3.7c0.2-0.3,0.4-0.4,0.6-0.4S22.4,32.1,22.6,32.3z"
	/>
<path class="st4" d="M12.4,31.1l-3.2-3.7C9.1,27.4,9,27.3,9,27.1v-1.7c0-0.1,0.1-0.2,0.2-0.2c0.1,0,0.1,0,0.2,0.1l3.6,4.1l3.6-4.1
	c0-0.1,0.1-0.1,0.2-0.1c0.1,0,0.2,0.1,0.2,0.2v1.7c0,0.2-0.1,0.2-0.2,0.3l-3.2,3.7c-0.2,0.3-0.4,0.4-0.6,0.4S12.6,31.4,12.4,31.1z"
	/>
<path class="st4" d="M13.6,32.5l3.2,3.7c0.1,0.1,0.2,0.2,0.2,0.3v1.7c0,0.1-0.1,0.2-0.2,0.2c-0.1,0-0.1,0-0.2-0.1L13,34.2l-3.6,4.1
	c0,0.1-0.1,0.1-0.2,0.1c-0.1,0-0.2-0.1-0.2-0.2v-1.7c0-0.2,0.1-0.2,0.2-0.4l3.2-3.7c0.2-0.3,0.4-0.4,0.6-0.4S13.4,32.3,13.6,32.5z"
	/>
<g>
	<polygon class="st0" points="110.2,15.2 115.2,12 110.2,8.8 	"/>
	<path class="st0" d="M100,0v24h24V0H100z M120.8,12.4c0,1-0.1,1.9-0.2,2.5c-0.3,1.4-0.6,3-2,3.1c-0.9,0.1-1.9,0.1-3.1,0.2
		c-0.3,0-0.7,0-1.1,0c-0.8,0-1.6,0-2.3,0c-0.7,0-1.5,0-2.3,0c-0.4,0-0.8,0-1.1,0c-1.3,0-2.3-0.1-3.1-0.2c-1.5-0.1-1.8-1.7-2-3.1
		c-0.1-0.5-0.1-1.5-0.2-2.5c0,0,0-0.1,0-0.1c0-1.2,0-2.5,0.2-3.2c0.3-1.4,0.6-3,2-3.1c0.9-0.1,1.9-0.1,3.1-0.2c0.3,0,0.7,0,1.1,0
		c0.8,0,1.6,0,2.3,0c0.7,0,1.5,0,2.3,0c0.4,0,0.8,0,1.1,0c1.3,0,2.3,0.1,3.1,0.2c1.5,0.1,1.8,1.7,2,3.1
		C120.8,9.8,120.8,11.1,120.8,12.4C120.8,12.4,120.8,12.4,120.8,12.4z"/>
</g>
<g>
	<path class="st0" d="M60.7,10.1c0.3-0.4,0.4-0.9,0.4-1.6c0-0.4-0.1-0.8-0.2-1.3c-0.1-0.5-0.3-0.9-0.5-1.3c-0.2-0.4-0.5-0.8-0.9-1.1
		c-0.4-0.3-0.8-0.4-1.2-0.4c-0.6,0-1.1,0.2-1.5,0.7c-0.3,0.5-0.5,1-0.5,1.7c0,0.3,0,0.6,0.1,1c0.1,0.4,0.2,0.7,0.4,1.1
		c0.2,0.3,0.3,0.7,0.6,0.9c0.2,0.3,0.5,0.5,0.8,0.7c0.3,0.2,0.6,0.3,1,0.3C59.9,10.7,60.4,10.5,60.7,10.1z"/>
	<path class="st0" d="M62.2,16.4c0-0.1-0.1-0.2-0.2-0.4c-0.1-0.1-0.1-0.2-0.2-0.3c-0.1-0.1-0.2-0.2-0.3-0.3
		c-0.1-0.1-0.2-0.2-0.3-0.3c-0.1-0.1-0.2-0.1-0.3-0.3c-0.2-0.1-0.3-0.2-0.3-0.2c-0.1,0-0.2-0.1-0.3-0.2c-0.2-0.1-0.3-0.2-0.3-0.2
		c-0.1,0-0.3,0-0.5,0c-0.4,0-0.7,0-1.1,0.1c-0.3,0.1-0.7,0.1-1.1,0.3c-0.4,0.1-0.7,0.3-1,0.5c-0.3,0.2-0.5,0.4-0.7,0.8
		c-0.2,0.3-0.3,0.7-0.3,1.1c0,0.5,0.1,0.9,0.4,1.2c0.2,0.4,0.6,0.6,0.9,0.9c0.4,0.2,0.8,0.4,1.2,0.5c0.4,0.1,0.9,0.2,1.3,0.2
		c0.4,0,0.8,0,1.1-0.1c0.4-0.1,0.7-0.2,1-0.4c0.3-0.2,0.6-0.4,0.8-0.7c0.2-0.3,0.3-0.7,0.3-1.1c0-0.1,0-0.3,0-0.4
		C62.3,16.6,62.2,16.5,62.2,16.4z"/>
	<path class="st0" d="M50,0v24h24V0H50z M62.4,19.1c-1,0.9-2.4,1.3-4.2,1.3c-0.4,0-0.8,0-1.2-0.1c-0.4-0.1-0.8-0.2-1.2-0.3
		c-0.4-0.2-0.8-0.4-1.1-0.6c-0.3-0.2-0.6-0.5-0.8-0.9c-0.2-0.4-0.3-0.8-0.3-1.2c0-0.4,0.1-0.9,0.4-1.4c0.2-0.4,0.5-0.8,1-1.1
		c0.4-0.3,0.9-0.6,1.5-0.7c0.5-0.2,1.1-0.3,1.6-0.4c0.5-0.1,1-0.1,1.5-0.1c-0.4-0.6-0.7-1.1-0.7-1.5c0-0.1,0-0.2,0-0.2
		c0-0.1,0-0.1,0.1-0.2c0-0.1,0-0.1,0.1-0.2c0-0.1,0.1-0.2,0.1-0.2c-0.3,0-0.5,0.1-0.7,0.1c-1,0-1.9-0.3-2.6-1
		c-0.7-0.7-1.1-1.5-1.1-2.5c0-0.9,0.3-1.8,1-2.5c0.6-0.7,1.4-1.2,2.4-1.4c0.6-0.1,1.3-0.2,1.9-0.2h4.4l-1.4,0.8h-1.4
		c0.5,0.3,0.9,0.7,1.1,1.3C62.9,6.3,63,6.8,63,7.4c0,0.5-0.1,0.9-0.2,1.3c-0.2,0.4-0.3,0.7-0.6,0.9c-0.2,0.2-0.4,0.5-0.7,0.7
		c-0.2,0.2-0.4,0.4-0.6,0.6c-0.2,0.2-0.2,0.4-0.2,0.7c0,0.2,0.1,0.3,0.2,0.5c0.1,0.2,0.3,0.3,0.4,0.5c0.2,0.2,0.4,0.3,0.6,0.5
		c0.2,0.2,0.4,0.4,0.6,0.6c0.2,0.2,0.4,0.4,0.6,0.7c0.2,0.2,0.3,0.5,0.4,0.9c0.1,0.3,0.2,0.7,0.2,1.1C63.8,17.4,63.3,18.3,62.4,19.1
		z M70.3,7.5h-2.6v2.6h-1.3V7.5h-2.6V6.2h2.6V3.7h1.3v2.6h2.6V7.5z"/>
</g>
<path class="st3" d="M148.7,40.2l-5.1-5.1c0.9-1.1,1.4-2.4,1.4-3.9c0-3.5-2.8-6.3-6.3-6.3c-3.5,0-6.3,2.8-6.3,6.3s2.8,6.3,6.3,6.3
	c1.5,0,2.9-0.5,3.9-1.4l5.1,5.1L148.7,40.2z M133.9,31.1c0-2.7,2.2-5,4.9-5c2.7,0,4.9,2.2,4.9,5s-2.2,5-4.9,5
	C136.1,36.1,133.9,33.9,133.9,31.1z"/>
<path class="st0" d="M75,0v24h24V0H75z M82.4,19.8L82.4,19.8c-0.4,0.4-1,0.7-1.6,0.7c-0.6,0-1.2-0.2-1.6-0.7l0,0h0c0,0,0,0,0,0
	c-0.4-0.4-0.7-1-0.7-1.6s0.2-1.2,0.7-1.6l0,0c0.4-0.4,1-0.7,1.6-0.7s1.2,0.3,1.6,0.7l0,0h0c0,0,0,0,0,0c0.4,0.4,0.7,1,0.7,1.6
	C83.1,18.8,82.8,19.4,82.4,19.8z M86.5,20.5L86.5,20.5L86.5,20.5c0-2.1-0.8-4.1-2.3-5.6c-1.5-1.5-3.5-2.3-5.6-2.3V9.4
	c3.1,0,5.8,1.2,7.8,3.3c2,2,3.3,4.8,3.3,7.8L86.5,20.5L86.5,20.5z M92.2,20.5c0-7.5-6.1-13.6-13.6-13.6V3.7c4.6,0,8.8,1.9,11.9,4.9
	c3,3,4.9,7.2,4.9,11.9H92.2z"/>
<path class="st0" d="M125,0v24h24V0H125z M145.3,8.6c-0.1,1.6-1.2,3.9-3.4,6.7c-2.3,3-4.2,4.5-5.8,4.5c-1,0-1.8-0.9-2.5-2.7
	c-0.5-1.7-0.9-3.3-1.4-5c-0.5-1.8-1-2.7-1.6-2.7c-0.1,0-0.6,0.3-1.3,0.8l-0.8-1c0.8-0.7,1.6-1.5,2.4-2.2c1.1-1,1.9-1.5,2.5-1.5
	c1.3-0.1,2.1,0.8,2.4,2.7c0.3,2.1,0.6,3.4,0.7,3.9c0.4,1.7,0.8,2.6,1.2,2.6c0.4,0,0.9-0.6,1.6-1.7c0.7-1.1,1.1-2,1.1-2.5
	c0.1-1-0.3-1.4-1.1-1.4c-0.4,0-0.8,0.1-1.2,0.3c0.8-2.7,2.4-4,4.7-3.9C144.6,5.2,145.4,6.4,145.3,8.6z"/>
<path class="st0" d="M25,0v24h24V0H25z M43.7,8.6c0,0.1,0,0.3,0,0.4c0,4.6-3.5,9.8-9.8,9.8c-1.9,0-3.8-0.6-5.3-1.5
	c0.3,0,0.5,0,0.8,0c1.6,0,3.1-0.6,4.3-1.5c-1.5,0-2.8-1-3.2-2.4c0.2,0,0.4,0.1,0.6,0.1c0.3,0,0.6,0,0.9-0.1
	c-1.6-0.3-2.8-1.7-2.8-3.4c0,0,0,0,0,0c0.5,0.3,1,0.4,1.6,0.4c-0.9-0.6-1.5-1.7-1.5-2.9c0-0.6,0.2-1.2,0.5-1.7
	c1.7,2.1,4.2,3.5,7.1,3.6c-0.1-0.3-0.1-0.5-0.1-0.8c0-1.9,1.5-3.4,3.4-3.4c1,0,1.9,0.4,2.5,1.1c0.8-0.2,1.5-0.4,2.2-0.8
	c-0.3,0.8-0.8,1.5-1.5,1.9c0.7-0.1,1.4-0.3,2-0.5C44.9,7.5,44.4,8.1,43.7,8.6z"/>
<g>
	<polygon class="st2" points="5,44.7 5,39.7 0,39.7 0,52.7 10,52.7 10,44.7 	"/>
	<polygon class="st2" points="6,39.7 6,43.7 10.2,43.7 	"/>
</g>
<g>
	<polygon class="st3" points="39,44.7 39,39.7 34,39.7 34,52.7 44,52.7 44,44.7 	"/>
	<polygon class="st3" points="40,39.7 40,43.7 43.8,43.7 	"/>
</g>
<g>
	<polygon class="st1" points="27,44.7 27,39.7 22,39.7 22,52.7 32,52.7 32,44.7 	"/>
	<polygon class="st1" points="28,39.7 28,43.7 32.2,43.7 	"/>
</g>
<g>
	<polygon class="st4" points="16.3,44.7 16.3,39.7 11.3,39.7 11.3,52.7 21.3,52.7 21.3,44.7 	"/>
	<polygon class="st4" points="17.3,39.7 17.3,43.7 21.3,43.7 	"/>
</g>
<polygon class="st2" points="53.2,41.7 51.2,39.7 45.4,39.7 45.4,52.7 61.4,52.7 61.4,41.7 "/>
<polygon class="st3" points="104,41.7 102,39.7 96.4,39.7 96.4,52.7 112.4,52.7 112.4,41.7 "/>
<polygon class="st1" points="87.2,41.7 85.2,39.7 79.4,39.7 79.4,52.7 95.4,52.7 95.4,41.7 "/>
<polygon class="st4" points="70.2,41.7 68.2,39.7 62.4,39.7 62.4,52.7 78.4,52.7 78.4,41.7 "/>
<g>
	<rect y="60" class="st0" width="32" height="3"/>
	<rect y="70" class="st0" width="32" height="3"/>
	<rect y="80" class="st0" width="32" height="3"/>
</g>
<polyline class="st3" points="92.5,81.5 72.5,106.5 72.5,56.5 "/>
<polyline class="st3" points="45.5,81.5 65.5,56.5 65.5,106.5 "/>
<path class="st5" d="M109.4,62.8l-3.7,3.2c-0.1,0.1-0.2,0.2-0.3,0.2h-1.7c-0.1,0-0.2-0.1-0.2-0.2c0-0.1,0-0.1,0.1-0.2l4.1-3.6
	l-4.1-3.6c-0.1,0-0.1-0.1-0.1-0.2c0-0.1,0.1-0.2,0.2-0.2h1.7c0.2,0,0.2,0.1,0.3,0.2l3.7,3.2c0.3,0.2,0.4,0.4,0.4,0.6
	S109.7,62.6,109.4,62.8z"/>
<path class="st5" d="M116.1,61.6l3.7-3.2c0.1-0.1,0.2-0.2,0.4-0.2h1.7c0.1,0,0.2,0.1,0.2,0.2c0,0.1,0,0.1-0.1,0.2l-4.1,3.6l4.1,3.6
	c0.1,0,0.1,0.1,0.1,0.2c0,0.1-0.1,0.2-0.2,0.2h-1.7c-0.2,0-0.2-0.1-0.4-0.2l-3.7-3.2c-0.3-0.2-0.4-0.4-0.4-0.6
	C115.7,61.9,115.8,61.8,116.1,61.6z"/>
<rect x="103.5" y="71.5" class="st2" width="8" height="8"/>
<rect x="116" y="71.5" class="st5" width="8" height="8"/>
<g>
	<path class="st0" d="M169,7.1c-0.2-0.4-0.3-0.7-0.6-1c-0.3-0.3-0.6-0.5-1-0.6c-0.3-0.1-0.7-0.3-1.6-0.3c-0.9,0-1.2,0-3.4,0
		c-0.3,0-0.5,0-0.8,0v0c-1.6,0-1.9,0-2.6,0c-0.8,0-1.3,0.2-1.6,0.3c-0.4,0.2-0.7,0.3-1,0.6c-0.3,0.3-0.5,0.6-0.6,1
		c-0.1,0.3-0.3,0.7-0.3,1.6c0,0.9,0,1.2,0,3.4c0,2.2,0,2.5,0,3.4c0,0.8,0.2,1.3,0.3,1.6c0.2,0.4,0.3,0.7,0.6,1
		c0.3,0.3,0.6,0.5,1,0.6c0.3,0.1,0.7,0.3,1.6,0.3c0.9,0,1.1,0,3.4,0c2.2,0,2.5,0,3.4,0c0.8,0,1.3-0.2,1.6-0.3c0.4-0.2,0.7-0.3,1-0.6
		c0.3-0.3,0.5-0.6,0.6-1c0.1-0.3,0.3-0.7,0.3-1.6c0-0.9,0-1.2,0-3.4c0-2.2,0-2.5,0-3.4C169.3,7.9,169.2,7.4,169,7.1z M162.5,16.4
		c-2.4,0-4.3-1.9-4.3-4.3s1.9-4.3,4.3-4.3c2.4,0,4.3,1.9,4.3,4.3C166.8,14.5,164.9,16.4,162.5,16.4z M167,8.6c-0.6,0-1-0.5-1-1
		c0-0.6,0.4-1,1-1c0.6,0,1,0.5,1,1C168,8.2,167.5,8.6,167,8.6z"/>
	<circle class="st0" cx="162.5" cy="12.1" r="2.8"/>
	<path class="st0" d="M150,0v24h24V0H150z M170.8,15.6c0,0.9-0.2,1.5-0.4,2c-0.2,0.6-0.5,1-1,1.5c-0.5,0.5-0.9,0.8-1.5,1
		c-0.5,0.2-1.1,0.3-2,0.4c-0.9,0-1.2,0.1-3.5,0.1c-2.3,0-2.6,0-3.5-0.1c-0.9,0-1.5-0.2-2-0.4c-0.6-0.2-1-0.5-1.5-1
		c-0.5-0.5-0.8-0.9-1-1.5c-0.2-0.5-0.4-1.1-0.4-2c0-0.9-0.1-1.2-0.1-3.5c0-2.3,0-2.6,0.1-3.5c0-0.9,0.2-1.5,0.4-2
		c0.2-0.6,0.5-1,1-1.5c0.5-0.5,0.9-0.8,1.5-1c0.5-0.2,1.1-0.3,2-0.4c0.9,0,1.2-0.1,3.5-0.1c0,0,0,0,0,0h0c0,0,0,0,0,0
		c2.3,0,2.6,0,3.5,0.1c0.9,0,1.5,0.2,2,0.4c0.5,0.2,1,0.5,1.5,1c0.5,0.5,0.8,0.9,1,1.5c0.2,0.5,0.4,1.1,0.4,2c0,0.9,0.1,1.2,0.1,3.5
		C170.9,14.4,170.9,14.7,170.8,15.6z"/>
</g>
</svg>
